<?xml version="1.0" encoding="UTF-8" standalone="no"?>
<!-- Created with Inkscape (http://www.inkscape.org/) -->

<svg
   xmlns:dc="http://purl.org/dc/elements/1.1/"
   xmlns:cc="http://creativecommons.org/ns#"
   xmlns:rdf="http://www.w3.org/1999/02/22-rdf-syntax-ns#"
   xmlns:svg="http://www.w3.org/2000/svg"
   xmlns="http://www.w3.org/2000/svg"
   xmlns:sodipodi="http://sodipodi.sourceforge.net/DTD/sodipodi-0.dtd"
   xmlns:inkscape="http://www.inkscape.org/namespaces/inkscape"
   width="70.555557mm"
   height="23.761242mm"
   viewBox="0 0 249.99999 84.193382"
   id="svg2"
   version="1.1"
   inkscape:version="0.91 r13725"
   sodipodi:docname="logo.svg">
  <defs
     id="defs4" />
  <sodipodi:namedview
     id="base"
     pagecolor="#ffffff"
     bordercolor="#666666"
     borderopacity="1.0"
     inkscape:pageopacity="0.0"
     inkscape:pageshadow="2"
     inkscape:zoom="2"
     inkscape:cx="148.36792"
     inkscape:cy="78.016609"
     inkscape:document-units="px"
     inkscape:current-layer="layer1"
     showgrid="false"
     showguides="true"
     inkscape:guide-bbox="true"
     inkscape:window-width="1680"
     inkscape:window-height="926"
     inkscape:window-x="0"
     inkscape:window-y="1"
     inkscape:window-maximized="1"
     fit-margin-top="0"
     fit-margin-left="0"
     fit-margin-right="0"
     fit-margin-bottom="0" />
  <metadata
     id="metadata7">
    <rdf:RDF>
      <cc:Work
         rdf:about="">
        <dc:format>image/svg+xml</dc:format>
        <dc:type
           rdf:resource="http://purl.org/dc/dcmitype/StillImage" />
        <dc:title></dc:title>
      </cc:Work>
    </rdf:RDF>
  </metadata>
  <g
     inkscape:label="Layer 1"
     inkscape:groupmode="layer"
     id="layer1"
     transform="translate(127.18086,-499.89151)">
    <g
       id="g4319"
       transform="matrix(0.43404237,0,0,0.43404237,-69.348301,329.6904)">
      <path
         sodipodi:nodetypes="ccccccccccccccccccc"
         inkscape:connector-curvature="0"
         id="path4164"
         d="m 63.75,447.54102 -38.570312,16.07031 6.074218,6.07422 -32.14648412,32.49804 -8.21289068,-8.21484 -45.0000002,45.71484 -11.072265,-10.35742 -35.894536,35.89258 c 52.943952,43.64852 146.499179,17.84586 151.787114,-67.67773 l -7.142578,-7.85743 -8.03711,7.67774 c 2.727755,50.60935 -62.999848,97.34748 -113.671875,64.20898 l 12.601563,-12.60156 10.714844,10.71484 44.9999995,-45.35742 8.2148437,8.21485 43.3730468,-42.3418 5.91211,5.91211 z"
         style="fill:#008080;fill-opacity:1;fill-rule:evenodd;stroke:none;stroke-width:1px;stroke-linecap:butt;stroke-linejoin:miter;stroke-opacity:1" />
      <path
         sodipodi:nodetypes="cccccccccccccccccc"
         inkscape:connector-curvature="0"
         id="path4156"
         d="m 72.857422,393.07617 -49.285156,21.42969 8.21289,8.21289 -27.8574216,27.85742 -13.5703125,-12.85742 -39.2851559,40 -15.714844,-15.35742 -51.582032,51.23437 C -131.24031,434.27817 -40.388624,391.29838 7.0824181,436.43867 L 18.362885,424.86133 C -73.715818,355.42674 -178.19104,468.36938 -111.78477,554.50527 l 46.069926,-47.14394 10.714844,10 45.3574219,-45.35547 8.92773435,8.57031 L 43.578125,434.51172 52.5,443.43359 Z"
         style="fill:#0bb181;fill-opacity:1;fill-rule:evenodd;stroke:#0bb181;stroke-width:1px;stroke-linecap:butt;stroke-linejoin:miter;stroke-opacity:1" />
    </g>
    <g
       style="font-style:normal;font-variant:normal;font-weight:600;font-stretch:normal;font-size:30.00000191px;line-height:125%;font-family:'.SF Compact Display';-inkscape-font-specification:'.SF Compact Display Semi-Bold';letter-spacing:0px;word-spacing:0px;fill:#000000;fill-opacity:1;stroke:none;stroke-width:1px;stroke-linecap:butt;stroke-linejoin:miter;stroke-opacity:1"
       id="text4315"
       transform="matrix(0.59307859,0,0,0.59307859,-84.75145,249.60763)">
      <path
         d="m 65.398438,530.73987 c 0.08789,4.1748 2.922363,9.09668 11.623536,9.09668 7.229004,0 11.887208,-3.51563 11.887208,-9.4043 0,-5.36133 -3.625489,-7.49268 -8.063966,-8.45947 l -4.658203,-1.07666 c -2.702637,-0.59327 -4.108887,-1.82373 -4.108887,-3.62549 0,-2.43897 2.043457,-3.95508 5.229492,-3.95508 3.603516,0 5.383302,1.99951 5.581055,4.24072 l 5.581056,0 c -0.08789,-5.3833 -4.702149,-8.89892 -11.140138,-8.89892 -6.174317,0 -11.184083,3.22998 -11.184083,9.0747 0,5.03174 3.493653,7.36084 7.60254,8.2837 l 4.636231,1.07666 c 3.098144,0.70312 4.614258,1.77978 4.614258,3.88916 0,2.48291 -1.999512,4.15283 -5.646973,4.15283 -3.933106,0 -6.020509,-2.06543 -6.218263,-4.39453 l -5.734863,0 z"
         style="font-size:45.00000381px"
         id="path4345"
         inkscape:connector-curvature="0" />
      <path
         d="m 105.43262,539.26526 0,-25.02686 8.52539,0 0,-4.96582 -22.983399,0 0,4.96582 8.525392,0 0,25.02686 5.932617,0 z"
         style="font-size:45.00000381px"
         id="path4347"
         inkscape:connector-curvature="0" />
      <path
         d="m 121.95606,522.41223 c 0,-5.77881 2.85644,-8.76709 6.81152,-8.76709 3.97705,0 6.8335,2.98828 6.8335,8.76709 l 0,3.91113 c 0,5.77881 -2.85645,8.56934 -6.8335,8.56934 -3.95508,0 -6.81152,-2.79053 -6.81152,-8.56934 l 0,-3.91113 z m -6.04248,3.88916 c 0,8.45947 4.81201,13.53516 12.83203,13.53516 8.02002,0 12.87598,-5.07569 12.87598,-13.53516 l 0,-3.84521 c 0,-8.48145 -4.79004,-13.75489 -12.83203,-13.75489 -7.99805,0 -12.87598,5.22949 -12.87598,13.75489 l 0,3.84521 z"
         style="font-size:45.00000381px"
         id="path4349"
         inkscape:connector-curvature="0" />
      <path
         d="m 151.64112,522.58801 c 0,-5.71289 2.37305,-8.87695 6.56983,-8.87695 3.64746,0 5.95459,2.52685 6.0205,6.08642 l 5.7129,0 0,-0.54931 c 0,-6.26221 -4.94385,-10.54688 -11.77735,-10.54688 -7.99805,0 -12.54639,5.29541 -12.54639,13.90869 l 0,3.42774 c 0,8.54736 4.54834,13.79883 12.54639,13.79883 6.81153,0 11.77735,-4.17481 11.77735,-10.19532 l 0,-0.57128 -5.7129,0 c -0.0659,3.36181 -2.37304,5.75683 -6.0205,5.75683 -4.19678,0 -6.56983,-3.12012 -6.56983,-8.74512 l 0,-3.49365 z"
         style="font-size:45.00000381px"
         id="path4351"
         inkscape:connector-curvature="0" />
      <path
         d="m 199.03614,509.27258 -6.52588,0 -11.35986,13.42529 -0.26367,0 0,-13.42529 -5.93262,0 0,29.99268 5.93262,0 0,-9.62403 3.07617,-3.49365 8.39355,13.11768 7.14112,0 -11.16211,-17.07276 10.70068,-12.91992 z"
         style="font-size:45.00000381px"
         id="path4353"
         inkscape:connector-curvature="0" />
      <path
         d="m 221.77785,539.26526 5.55908,-20.78614 0.21973,0 5.53711,20.78614 5.47119,0 7.93213,-29.99268 -6.30615,0 -4.63623,21.40137 -0.2417,0 -5.29541,-21.40137 -5.14161,0 -5.31738,21.40137 -0.21973,0 -4.6582,-21.40137 -6.30615,0 7.93213,29.99268 5.47119,0 z"
         style="font-size:45.00000381px"
         id="path4355"
         inkscape:connector-curvature="0" />
      <path
         d="m 251.66066,539.26526 2.37305,-7.7124 9.99756,0 2.35107,7.7124 6.30615,0 -9.99756,-29.99268 -6.96533,0 -10.06348,29.99268 5.99854,0 z m 7.53662,-24.25782 3.64746,12.12891 -7.58056,0 3.66943,-12.12891 0.26367,0 z"
         style="font-size:45.00000381px"
         id="path4357"
         inkscape:connector-curvature="0" />
      <path
         d="m 285.69631,539.26526 0,-25.02686 8.52539,0 0,-4.96582 -22.9834,0 0,4.96582 8.52539,0 0,25.02686 5.93262,0 z"
         style="font-size:45.00000381px"
         id="path4359"
         inkscape:connector-curvature="0" />
      <path
         d="m 302.19777,522.58801 c 0,-5.71289 2.37305,-8.87695 6.56982,-8.87695 3.64747,0 5.95459,2.52685 6.02051,6.08642 l 5.71289,0 0,-0.54931 c 0,-6.26221 -4.94384,-10.54688 -11.77734,-10.54688 -7.99805,0 -12.54639,5.29541 -12.54639,13.90869 l 0,3.42774 c 0,8.54736 4.54834,13.79883 12.54639,13.79883 6.81152,0 11.77734,-4.17481 11.77734,-10.19532 l 0,-0.57128 -5.71289,0 c -0.0659,3.36181 -2.37304,5.75683 -6.02051,5.75683 -4.19677,0 -6.56982,-3.12012 -6.56982,-8.74512 l 0,-3.49365 z"
         style="font-size:45.00000381px"
         id="path4361"
         inkscape:connector-curvature="0" />
      <path
         d="m 349.98831,539.26526 0,-29.99268 -5.95459,0 0,12.19483 -12.59033,0 0,-12.19483 -5.93262,0 0,29.99268 5.93262,0 0,-12.85401 12.59033,0 0,12.85401 5.95459,0 z"
         style="font-size:45.00000381px"
         id="path4363"
         inkscape:connector-curvature="0" />
    </g>
  </g>
</svg>
